Coordinates
version=1
nRows=17
nColumns=36
inDegrees=yes

Units are S.I. units (second, meters, Newtons, ...)
If the header above contains a line with 'inDegrees', this indicates whether rotational values are in degrees (yes) or radians (no).

endheader
time	pelvis_tilt	pelvis_list	pelvis_rotation	pelvis_tx	pelvis_ty	pelvis_tz	hip_flexion_r	hip_adduction_r	hip_rotation_r	knee_angle_r	knee_angle_r_beta	ankle_angle_r	subtalar_angle_r	mtp_angle_r	hip_flexion_l	hip_adduction_l	hip_rotation_l	knee_angle_l	knee_angle_l_beta	ankle_angle_l	subtalar_angle_l	mtp_angle_l	lumbar_extension	lumbar_bending	lumbar_rotation	arm_flex_r	arm_add_r	arm_rot_r	elbow_flex_r	pro_sup_r	arm_flex_l	arm_add_l	arm_rot_l	elbow_flex_l	pro_sup_l
      0.00000000	     20.75333122	      3.22197507	     -0.31647096	      0.32266071	      0.90406268	      0.27242727	    -18.15754571	      7.83068887	     -8.18255951	      9.82297942	      0.17144333	     16.96680958	     -4.08495195	     -6.25482786	     12.84207448	     -0.08041022	     -5.43977373	     13.52120427	      0.23598953	     -4.86032571	     -5.08683484	     -6.25482786	    -34.91933910	      3.52214880	      4.83374952	     59.87766957	      2.71693252	     56.62944205	    133.24125176	    102.85076172	     79.85164152	     15.22052004	     78.70771876	    100.87429438	    101.53169625
      0.01666670	     28.16745243	      6.79819804	     -1.74236600	      0.31291052	      0.91470814	      0.27439400	    -26.83520161	      3.26260895	     -8.42804980	      7.64734264	      0.13347131	     17.77191907	     -4.21499977	     -6.39219229	     -0.35598107	      5.90263683	     -8.67026928	      4.08689134	      0.07132971	     -6.06764417	     -2.50063020	     -6.39219229	    -43.90121814	     -0.73108399	      1.76762117	     59.18289381	      3.94148944	     42.27591964	    130.11059056	    101.95285557	     87.52700326	     14.08640568	     79.44985709	    103.25413486	     99.48016390
      0.03333330	     28.48529635	      8.07964646	     -1.59537734	      0.31355820	      0.91648982	      0.27536749	    -28.01142036	      2.18398793	     -9.62756638	      6.56123279	      0.11451512	     18.37720662	     -4.53811516	     -7.15681615	     -2.57705151	      8.09801011	     -8.11509414	      0.84151211	      0.01468716	     -8.73350181	     -2.59901085	     -7.15681615	    -44.53444825	     -1.90049225	      1.61556177	     58.33962589	      3.95057169	     37.29288898	    133.99341230	    100.66136442	     88.65498672	     15.19278840	     81.01669584	    103.59184826	    100.87370780
      0.05000000	     28.64641098	      8.67440352	     -1.30485190	      0.31193700	      0.92014263	      0.27709472	    -28.44772634	      1.88535843	    -10.37472458	      5.96509257	      0.10411051	     18.71641447	     -2.96406508	     -7.39322477	     -3.12832469	      8.80027025	     -8.20417492	      0.49843754	      0.00869938	    -10.73440620	     -3.15682000	     -7.39322477	    -44.99721576	     -2.42106357	      0.59882690	     56.55945982	      4.95723053	     30.72982869	    130.51568139	     97.58172934	     89.61418648	     15.25070550	     81.73673367	    103.64717843	    101.29675032
      0.06666670	     28.49584691	      9.25439857	     -0.60563978	      0.31174966	      0.92013647	      0.27698117	    -28.93329491	      1.78742975	    -10.77666698	      4.90999064	      0.08569550	     17.28259486	     -3.16862155	     -7.39745696	     -3.10171260	      9.58900480	     -7.60818105	      0.42200692	      0.00736541	    -12.63675532	     -4.21495168	     -7.39745696	    -45.02852615	     -2.49959515	      0.15637067	     56.08134255	      5.82251558	     27.95610890	    132.51924413	     97.85875752	     89.20803781	     14.95617387	     81.71330420	    103.90904683	    101.95439477
      0.08333330	     28.16073394	      9.46435834	     -0.29479147	      0.31126502	      0.92007022	      0.27720598	    -29.06400092	      1.80881362	    -10.73323936	      4.04366713	      0.07057531	     16.29150040	     -3.06184052	     -7.40056209	     -2.82661052	      9.94373571	     -7.34474614	      0.38622772	      0.00674095	    -13.44013915	     -4.67806208	     -7.40056209	    -44.63650400	     -2.60298355	     -0.13011904	     56.12552741	      6.00687015	     26.85539317	    132.82455303	     98.17345857	     88.34910430	     14.72718824	     80.96331155	    104.21596737	    102.34564627
      0.10000000	     27.82180228	      9.49811621	      0.10164875	      0.31087489	      0.91970866	      0.27716727	    -29.12374678	      2.03153656	    -10.39386094	      3.29721224	      0.05754721	     15.29508458	     -3.58620032	     -7.44113015	     -2.40210719	     10.02459199	     -6.87635821	      0.34986693	      0.00610633	    -14.26070581	     -5.42926539	     -7.44113015	    -44.30235500	     -2.49882225	     -0.52328081	     56.01780744	      6.72362676	     25.65927587	    131.21001021	    100.07081017	     87.58835503	     14.05034742	     80.42241449	    104.45499371	    104.44584750
      0.11666670	     27.63085927	      9.50717378	      0.43692893	      0.31118543	      0.91722651	      0.27617170	    -29.18470436	      2.19786343	    -10.27971186	      2.96265706	      0.05170812	     14.29047975	     -3.98644845	     -7.44694168	     -2.17511447	     10.12112830	     -6.61173252	      0.33053203	      0.00576887	    -14.35386182	     -5.16642163	     -7.44694168	    -44.03878296	     -2.37127919	     -0.98811592	     55.55806794	      7.78768169	     23.66920210	    129.89765892	     99.99497212	     87.24103212	     13.69007207	     79.95936464	    104.75016903	    104.22980932
      0.13333330	     27.49637859	      9.40668628	      0.71690096	      0.31000702	      0.91703599	      0.27607494	    -29.12860347	      2.43667608	    -10.03333372	      2.68253064	      0.04681899	     13.59490887	     -4.54547298	     -7.46165432	     -1.96206253	     10.05658575	     -6.09481021	      0.31756950	      0.00554263	    -14.76913053	     -5.55724228	     -7.46165432	    -43.96299844	     -2.18302719	     -1.20058185	     55.94022670	      8.03510570	     24.26640149	    129.83299469	     99.95936740	     87.15773655	     13.40443078	     79.38241818	    104.69786528	    103.95905295
      0.15000000	     27.63121942	      9.50001529	      0.91153262	      0.31228711	      0.92039912	      0.27622109	    -29.11532765	      2.38001881	    -10.43103893	      2.99171431	      0.05221527	     13.49807870	     -4.34080038	     -7.46355800	     -2.18545279	     10.18228305	     -5.97778839	      0.31496143	      0.00549711	    -14.97939861	     -4.89907186	     -7.46355800	    -44.41967949	     -2.24866123	      0.40245798	     59.36941526	      6.65638534	     33.63282079	    138.91464347	    100.66924972	     87.11358999	     15.03399541	     79.46474505	    103.87541129	    103.96395628
      0.16666670	     27.65197238	      9.47267433	      0.99710497	      0.31049358	      0.91777560	      0.27541857	    -29.13004206	      2.42249777	    -10.42530152	      3.04920840	      0.05321873	     13.27951552	     -4.56323432	     -7.48240236	     -2.29142769	     10.15706739	     -5.89136243	      0.31231383	      0.00545090	    -14.73475352	     -4.36871886	     -7.48240236	    -44.55332044	     -2.14682626	      0.10293214	     58.66402940	      6.82521312	     31.89778720	    137.89610404	    101.93722505	     87.23014419	     15.09620796	     79.13511833	    103.77460684	    103.95953021
      0.18333330	     27.70048607	      9.46245480	      1.05744914	      0.30996711	      0.91901847	      0.27500343	    -29.11924282	      2.42930265	    -10.40937506	      3.10425081	      0.05417940	     13.00223576	     -4.77093564	     -7.48898228	     -2.40417724	     10.15795120	     -5.73418059	      0.31416563	      0.00548322	    -14.79023066	     -3.98609862	     -7.48898228	    -44.69613746	     -2.09946197	      0.04877256	     57.49792830	      7.06508451	     30.04432795	    136.64708469	    100.18748160	     87.28365106	     15.18333154	     79.39121326	    103.67801861	    103.42146468
      0.20000000	     27.75035978	      9.56272334	      1.05296309	      0.31266357	      0.92109953	      0.27622380	    -29.12181159	      2.34925940	    -10.49944393	      3.13347357	      0.05468943	     12.83359561	     -4.96567608	     -7.49320162	     -2.62402286	     10.25736876	     -5.56539819	      0.31440443	      0.00548739	    -15.22895409	     -4.14521000	     -7.49320162	    -44.75155119	     -2.25896416	      0.81028354	     60.94530094	      6.61422479	     41.77822019	    142.92778214	    104.41069899	     87.00916054	     15.80653306	     79.98447481	    103.39574314	    104.50459395
      0.21666670	     27.85105001	      9.66188377	      1.00929136	      0.31146324	      0.91971158	      0.27641600	    -29.13155031	      2.25631079	    -10.82315626	      3.30743482	      0.05772563	     12.82219180	     -4.89834480	     -7.49780765	     -2.84746752	     10.32827295	     -5.68954069	      0.31461100	      0.00549100	    -15.24125741	     -3.67256560	     -7.49780765	    -44.84941993	     -2.42254210	      0.68350338	     60.19930722	      5.99452651	     41.13187787	    142.71006268	    104.15694405	     86.89373486	     15.93131740	     80.03376344	    103.86673388	    104.09058842
      0.23333330	     27.95247709	      9.64291748	      0.90373741	      0.31105781	      0.92016882	      0.27660598	    -29.10275944	      2.24192270	    -10.58337929	      3.28400879	      0.05731677	     12.74832908	     -5.40952608	     -7.49840141	     -3.01913326	     10.29718796	     -5.36539292	      0.30526094	      0.00532781	    -15.74648546	     -4.19413545	     -7.49840141	    -45.05168352	     -2.53358842	      0.77080453	     61.01348587	      5.81621046	     43.85370851	    142.75051598	    102.92881027	     87.24085434	     15.87616429	     80.64287543	    103.93128512	    102.45572152
      0.25000000	     27.98722056	      9.65784265	      0.91306013	      0.31038575	      0.91959853	      0.27676276	    -29.09928412	      2.24291494	    -10.94196226	      3.30014397	      0.05759838	     12.98421109	     -4.98187000	     -7.49953610	     -3.10116951	     10.29396329	     -5.52055654	      0.30379789	      0.00530227	    -15.65637437	     -3.70527270	     -7.49953610	    -45.14945832	     -2.57012365	      0.51407507	     59.70578989	      5.50011280	     40.07572714	    140.97919051	    102.32917534	     87.67512088	     15.74375558	     80.70985581	    103.91399882	    102.75626213
      0.26666670	     28.05627049	      9.61430548	      0.84223380	      0.31031063	      0.91938855	      0.27653274	    -29.10796004	      2.25124675	    -10.95416391	      3.35538794	      0.05856257	     12.80364873	     -5.28854634	     -7.49961957	     -3.21796423	     10.24120005	     -5.54314908	      0.29980870	      0.00523265	    -15.79265452	     -3.45939160	     -7.49961957	    -45.22085521	     -2.57630859	      0.36339311	     60.07670255	      5.67606424	     40.56160209	    141.47171423	    102.96834077	     88.08277623	     15.50282401	     80.79933148	    103.45322572	    103.48558227
